<svg width="383" height="820" viewBox="0 0 383 820" fill="none" xmlns="http://www.w3.org/2000/svg">
<g clip-path="url(#clip0_100_1021)" filter="url(#filter0_d_100_1021)">
<rect width="375" height="812" transform="translate(4)" fill="#222222"/>
<rect x="193.354" y="619.922" width="207" height="177" transform="rotate(19.9637 193.354 619.922)" stroke="#C183FF" stroke-width="3" stroke-dasharray="10 10"/>
<rect x="-52.5" y="351.5" width="263" height="263" rx="131.5" stroke="#C183FF" stroke-width="3" stroke-dasharray="10 10"/>
<rect x="18.8999" y="657.944" width="57" height="144" transform="rotate(-18.5896 18.8999 657.944)" stroke="#C183FF" stroke-width="3" stroke-dasharray="10 10"/>
<rect x="148.739" y="243.68" width="251" height="123" rx="28.5" transform="rotate(-10.0823 148.739 243.68)" stroke="#C183FF" stroke-width="3" stroke-dasharray="10 10"/>
<rect x="222.567" y="363.728" width="135" height="259" rx="67.5" transform="rotate(-2.61574 222.567 363.728)" stroke="#C183FF" stroke-width="3" stroke-dasharray="10 10"/>
<path d="M173.102 85.6385L172.956 76.1426L174.456 76.1196L174.423 73.9695L176.302 75.016L177.032 73.7057L185.328 78.3277L184.598 79.6381L192.894 84.2601L193.625 82.9498L201.921 87.5718L201.191 88.8822L209.487 93.5042L210.217 92.1939L218.514 96.8159L217.784 98.1263L226.08 102.748L226.81 101.438L235.106 106.06L234.376 107.37L242.673 111.992L243.403 110.682L251.699 115.304L250.969 116.614L259.265 121.237L259.995 119.926L268.292 124.548L267.562 125.859L275.858 130.481L276.588 129.17L284.884 133.792L284.154 135.103L286.033 136.149L284.187 137.253L284.957 138.54L276.806 143.414L276.036 142.127L267.885 147L268.655 148.288L260.504 153.162L259.734 151.874L251.583 156.748L252.353 158.036L244.202 162.909L243.432 161.622L235.281 166.496L236.051 167.783L227.9 172.657L227.13 171.37L218.979 176.243L219.749 177.531L211.598 182.405L210.828 181.117L202.677 185.991L203.447 187.278L195.296 192.152L194.526 190.865L186.375 195.739L187.145 197.026L178.994 201.9L178.224 200.613L176.379 201.716L176.346 199.566L174.846 199.589L174.701 190.093L176.201 190.07L176.055 180.574L174.555 180.597L174.41 171.101L175.91 171.078L175.764 161.582L174.265 161.605L174.119 152.11L175.619 152.087L175.474 142.591L173.974 142.614L173.829 133.118L175.328 133.095L175.183 123.599L173.683 123.622L173.538 114.126L175.038 114.103L174.892 104.607L173.392 104.63L173.247 95.1343L174.747 95.1114L174.602 85.6155L173.102 85.6385Z" stroke="#C183FF" stroke-width="3" stroke-dasharray="10 10"/>
<path d="M62.6354 139.811L62.5615 142.572L64.9178 141.13L68.9052 138.691L68.1223 137.411L76.0971 132.531L76.88 133.811L84.8548 128.931L84.0719 127.651L92.0467 122.771L92.8296 124.051L100.804 119.171L100.022 117.891L107.996 113.012L108.779 114.291L116.754 109.411L115.971 108.132L123.946 103.252L124.044 103.412L123.896 103.605L124.398 103.991L124.729 104.531L124.936 104.404L125.085 104.519L119.39 111.933L118.2 111.019L112.504 118.433L113.694 119.347L107.998 126.761L106.809 125.847L101.113 133.261L102.302 134.175L96.6064 141.589L95.4169 140.676L89.7211 148.09L90.9106 149.003L85.2148 156.418L84.0253 155.504L81.1774 159.211L79.4945 161.401L82.2483 161.62L86.9083 161.99L87.027 160.494L96.3471 161.234L96.2284 162.729L105.549 163.469L105.667 161.973L114.987 162.713L114.869 164.208L124.189 164.948L124.307 163.453L133.627 164.192L133.509 165.687L142.829 166.427L142.948 164.932L152.268 165.671L152.253 165.859L152.02 165.928L152.199 166.535L152.149 167.167L152.391 167.186L152.445 167.366L143.479 170.016L143.054 168.578L134.088 171.228L134.513 172.667L125.547 175.317L125.122 173.878L116.156 176.529L116.581 177.967L107.615 180.617L107.19 179.179L98.2241 181.829L98.6493 183.267L89.6834 185.918L89.2582 184.479L84.7753 185.804L82.1261 186.587L84.2255 188.383L87.7782 191.421L88.7531 190.281L95.8586 196.358L94.8837 197.498L101.989 203.574L102.964 202.434L110.069 208.511L109.094 209.651L116.2 215.727L117.175 214.587L124.28 220.664L123.305 221.804L130.411 227.88L131.386 226.74L138.491 232.817L138.369 232.96L138.14 232.878L137.928 233.475L137.516 233.957L137.701 234.115L137.638 234.292L128.827 231.166L129.328 229.752L120.517 226.626L120.015 228.04L111.204 224.914L111.706 223.501L102.894 220.375L102.393 221.788L93.5815 218.662L94.083 217.249L85.2716 214.123L84.7701 215.536L75.9588 212.41L76.4603 210.997L72.0547 209.434L69.4512 208.51L70.0944 211.197L71.1827 215.743L72.6415 215.394L74.8182 224.486L73.3594 224.835L75.5361 233.928L76.9949 233.579L79.1716 242.671L77.7128 243.02L79.8895 252.113L81.3483 251.764L83.525 260.856L82.0662 261.205L84.2429 270.298L85.7017 269.948L87.8784 279.041L87.6955 279.085L87.5579 278.884L87.0357 279.243L86.4197 279.39L86.4763 279.627L86.3212 279.733L81.0301 272.025L82.2668 271.176L76.9756 263.468L75.739 264.317L70.4478 256.609L71.6845 255.76L66.3934 248.052L65.1567 248.901L59.8656 241.193L61.1023 240.344L55.8111 232.636L54.5745 233.484L49.2833 225.776L50.52 224.927L47.8744 221.073L46.3111 218.796L45.2523 221.347L43.4606 225.665L44.8461 226.24L41.2626 234.875L39.8772 234.3L36.2938 242.936L37.6792 243.511L34.0958 252.146L32.7103 251.571L29.1269 260.207L30.5124 260.782L26.9289 269.417L25.5435 268.842L21.9601 277.477L23.3455 278.052L19.7621 286.688L19.5884 286.616L19.5949 286.373L18.9617 286.356L18.3766 286.113L18.2834 286.337L18.0954 286.332L18.3455 276.986L19.845 277.027L20.0951 267.68L18.5956 267.64L18.8457 258.294L20.3452 258.334L20.5953 248.988L19.0958 248.948L19.346 239.602L20.8454 239.642L21.0955 230.296L19.5961 230.256L19.8462 220.91L21.3456 220.95L21.4707 216.277L21.5446 213.516L19.1883 214.958L15.2009 217.398L15.9838 218.677L8.00899 223.557L7.22606 222.277L-0.748742 227.157L0.0341794 228.437L-7.94064 233.317L-8.72356 232.037L-16.6984 236.917L-15.9154 238.197L-23.8903 243.077L-24.6732 241.797L-32.648 246.677L-31.8651 247.956L-39.8399 252.836L-39.938 252.676L-39.7899 252.483L-40.2922 252.097L-40.6228 251.557L-40.8303 251.684L-40.9794 251.569L-35.2836 244.155L-34.0941 245.069L-28.3983 237.655L-29.5878 236.741L-23.892 229.327L-22.7025 230.241L-17.0067 222.827L-18.1962 221.913L-12.5004 214.499L-11.3109 215.413L-5.61505 207.998L-6.80456 207.085L-1.10875 199.671L0.0807542 200.584L2.92865 196.877L4.61157 194.687L1.8578 194.468L-2.80224 194.098L-2.92089 195.594L-12.241 194.854L-12.1223 193.359L-21.4424 192.619L-21.5611 194.115L-30.8812 193.375L-30.7625 191.88L-40.0826 191.14L-40.2013 192.636L-49.5214 191.896L-49.4027 190.401L-58.7228 189.661L-58.8414 191.156L-68.1615 190.417L-68.1467 190.229L-67.9134 190.16L-68.093 189.553L-68.0429 188.922L-68.2853 188.902L-68.3386 188.722L-59.3727 186.072L-58.9475 187.51L-49.9816 184.86L-50.4068 183.422L-41.4409 180.771L-41.0157 182.21L-32.0498 179.56L-32.475 178.121L-23.5091 175.471L-23.0839 176.909L-14.118 174.259L-14.5432 172.821L-5.57733 170.17L-5.15213 171.609L-0.669185 170.284L1.97993 169.501L-0.119476 167.705L-3.67218 164.667L-4.64708 165.807L-11.7525 159.731L-10.7776 158.591L-17.883 152.514L-18.8579 153.654L-25.9633 147.577L-24.9884 146.437L-32.0938 140.361L-33.0687 141.501L-40.1741 135.424L-39.1992 134.284L-46.3047 128.208L-47.2796 129.348L-54.385 123.271L-54.2627 123.128L-54.0335 123.21L-53.8218 122.613L-53.4101 122.131L-53.5949 121.973L-53.532 121.796L-44.7207 124.922L-45.2222 126.336L-36.4109 129.462L-35.9094 128.048L-27.098 131.174L-27.5996 132.588L-18.7882 135.714L-18.2867 134.3L-9.47537 137.426L-9.9769 138.839L-1.16558 141.965L-0.66405 140.552L8.14727 143.678L7.64575 145.091L12.0514 146.654L14.6549 147.578L14.0117 144.891L12.9234 140.345L11.4646 140.694L9.28788 131.602L10.7467 131.253L8.56995 122.16L7.11117 122.51L4.93446 113.417L6.39325 113.068L4.21654 103.975L2.75776 104.325L0.581051 95.2321L2.03983 94.8829L-0.136875 85.7904L-1.59566 86.1396L-3.77236 77.0472L-3.58947 77.0034L-3.45183 77.2039L-2.92961 76.8454L-2.31358 76.6979L-2.3702 76.4614L-2.21516 76.355L3.07597 84.0631L1.83929 84.912L7.13042 92.6201L8.3671 91.7712L13.6582 99.4793L12.4216 100.328L17.7127 108.036L18.9493 107.187L24.2405 114.896L23.0038 115.744L28.2949 123.453L29.5316 122.604L34.8227 130.312L33.5861 131.161L36.2316 135.015L37.795 137.292L38.8537 134.741L40.6455 130.423L39.26 129.848L42.8434 121.213L44.2289 121.788L47.8123 113.152L46.4269 112.577L50.0103 103.942L51.3957 104.517L54.9792 95.8815L53.5937 95.3066L57.1771 86.6712L58.5626 87.2461L62.146 78.6107L60.7606 78.0358L64.344 69.4004L64.5177 69.4724L64.5112 69.7156L65.1444 69.7325L65.7294 69.9753L65.8227 69.7507L66.0107 69.7557L65.7605 79.1017L64.2611 79.0616L64.011 88.4076L65.5104 88.4478L65.2603 97.7938L63.7609 97.7537L63.5108 107.1L65.0102 107.14L64.7601 116.486L63.2607 116.446L63.0106 125.792L64.51 125.832L64.2599 135.178L62.7604 135.138L62.6354 139.811Z" stroke="#C183FF" stroke-width="3" stroke-dasharray="10 10"/>
</g>
<defs>
<filter id="filter0_d_100_1021" x="0" y="0" width="383" height="820" filterUnits="userSpaceOnUse" color-interpolation-filters="sRGB">
<feFlood flood-opacity="0" result="BackgroundImageFix"/>
<feColorMatrix in="SourceAlpha" type="matrix" values="0 0 0 0 0 0 0 0 0 0 0 0 0 0 0 0 0 0 127 0" result="hardAlpha"/>
<feOffset dy="4"/>
<feGaussianBlur stdDeviation="2"/>
<feComposite in2="hardAlpha" operator="out"/>
<feColorMatrix type="matrix" values="0 0 0 0 0 0 0 0 0 0 0 0 0 0 0 0 0 0 0.25 0"/>
<feBlend mode="normal" in2="BackgroundImageFix" result="effect1_dropShadow_100_1021"/>
<feBlend mode="normal" in="SourceGraphic" in2="effect1_dropShadow_100_1021" result="shape"/>
</filter>
<clipPath id="clip0_100_1021">
<rect width="375" height="812" fill="white" transform="translate(4)"/>
</clipPath>
</defs>
</svg>
