<svg width="312" height="190" viewBox="0 0 312 190" fill="none" xmlns="http://www.w3.org/2000/svg">
<rect y="51.3032" width="291" height="140" rx="30" transform="rotate(-10.1543 0 51.3032)" fill="#0084FF"/>
<path d="M118.12 87.9272L120.059 98.755L127.626 97.3996L128.783 103.859L121.216 105.215L123.133 115.919L115.258 117.33L110.245 89.3376L118.12 87.9272ZM123.53 118.134L126.262 133.391L96.9168 138.647L97.589 142.4L128.534 136.858L129.636 143.01L91.0007 149.929L88.213 134.365L117.435 129.131L116.796 125.563L87.4509 130.818L86.371 124.789L123.53 118.134ZM89.4406 94.7781C98.0646 93.297 105.388 97.3189 106.722 104.763C108.044 112.145 102.593 118.582 93.9803 120.125C85.3674 121.667 77.9601 117.534 76.6378 110.151C75.3046 102.707 80.8387 96.3823 89.4406 94.7781ZM90.5866 101.176C86.2801 101.948 83.5612 104.847 84.328 108.774C84.9827 112.784 88.561 114.682 92.8675 113.911C97.1739 113.14 99.8092 110.128 99.093 106.129C98.3878 102.192 94.8931 100.405 90.5866 101.176ZM153.635 85.5665C154.34 89.5038 154.487 93.1602 154.025 96.6081L159.869 95.5613L157.445 82.0267L164.828 80.7045L170.205 110.727L162.822 112.049L160.982 101.775L152.246 103.34C149.779 109.242 145.109 114.364 138.017 118.904L133.167 113.805C142.75 107.929 146.826 101.263 146.576 93.3071L132.857 95.7643L131.733 89.4891L153.635 85.5665ZM176.268 77.5761L181.965 109.382L174.521 110.716L168.824 78.9093L176.268 77.5761ZM155.309 118.665C156.113 123.156 158.852 127.459 163.95 129.689C167.944 125.577 169.073 120.358 168.351 116.329L167.877 113.683L175.629 112.295L176.103 114.94C177.066 120.673 181.268 125.698 189.119 126.641L186.33 133.046C180.616 132.165 176.487 129.317 173.772 125.326C172.698 129.964 170.146 134.326 165.428 137.234C159.894 136.289 155.972 133.181 153.38 129.169C152.161 133.705 149.327 137.737 144.557 140.528L139.595 135.511C146.526 131.667 148.773 125.423 147.865 119.998L147.391 117.353L154.835 116.019L155.309 118.665ZM226.766 68.4682L230.49 89.2623L238.734 87.7858L239.88 94.1839L231.636 95.6605L236.815 124.575L228.94 125.986L218.891 69.8786L226.766 68.4682ZM212.003 76.4457L213.138 82.7824L194.682 86.088L199.078 110.635C207.183 109.088 213.822 107.518 221.03 104.862L223.07 111.29C214.66 114.321 207.075 115.933 197.159 117.646L192.422 118.494L185.734 81.1507L212.003 76.4457Z" fill="white"/>
</svg>
