<svg width="271" height="251" viewBox="0 0 271 251" fill="none" xmlns="http://www.w3.org/2000/svg">
<rect width="222" height="190" transform="translate(59.8564) rotate(18.3629)" fill="#03A864"/>
<path d="M109.043 97.3263L91.0865 151.424L83.4345 148.884L101.391 94.7864L109.043 97.3263ZM57.8055 105.87C61.6842 94.0853 70.176 88.6394 78.4805 91.396C86.607 94.0934 90.1863 103.546 86.2779 115.321C82.34 127.184 73.8284 132.591 65.7019 129.893C57.3974 127.136 53.8379 117.723 57.8055 105.87ZM65.1015 108.291C62.4039 116.319 63.7645 121.644 67.9859 123.012C72.0689 124.4 76.2842 120.927 78.9818 112.899C81.6103 104.881 80.3091 99.5761 76.2161 98.2175C72.0046 96.8195 67.73 100.274 65.1015 108.291ZM161.836 114.85L143.918 168.829L136.385 166.328L145.364 139.28L134.627 135.716L136.675 129.547L147.411 133.111L154.303 112.35L161.836 114.85ZM102.968 138.246C118.846 136.042 127.346 129.381 132.401 117.921L114.517 111.985L116.486 106.053L141.992 114.519C136.558 130.792 126.848 142.386 104.914 145.477L102.968 138.246ZM182.108 125.794C190.353 128.531 193.844 137.954 189.965 149.738C185.997 161.592 177.575 167.028 169.33 164.291C161.055 161.544 157.525 152.141 161.492 140.287C165.371 128.503 173.833 123.047 182.108 125.794ZM168.789 142.709C166.121 150.747 167.481 156.071 171.614 157.41C175.815 158.838 180.031 155.364 182.728 147.336C185.357 139.318 184.055 134.013 179.844 132.615C175.721 131.247 171.447 134.701 168.789 142.709ZM185.915 182.769L203.833 128.79L211.425 131.311L207.271 143.827L214.923 146.367L212.816 152.714L205.164 150.174L201.974 159.783L209.626 162.323L207.579 168.492L199.927 165.952L193.508 185.29L185.915 182.769Z" fill="white"/>
</svg>
