<svg width="32" height="32" viewBox="0 0 32 32" fill="none" xmlns="http://www.w3.org/2000/svg">
<path d="M13.6573 21.752L8 16.0933L9.88533 14.208L13.6573 17.9786L21.1987 10.436L23.0853 12.3226L13.6573 21.752Z" fill="#0084FF"/>
<path fill-rule="evenodd" clip-rule="evenodd" d="M1.3335 16C1.3335 7.89998 7.90016 1.33331 16.0002 1.33331C24.1002 1.33331 30.6668 7.89998 30.6668 16C30.6668 24.1 24.1002 30.6666 16.0002 30.6666C7.90016 30.6666 1.3335 24.1 1.3335 16ZM16.0002 28C14.4243 28 12.8639 27.6896 11.408 27.0865C9.95205 26.4835 8.62918 25.5996 7.51488 24.4853C6.40058 23.371 5.51666 22.0481 4.91361 20.5922C4.31055 19.1363 4.00016 17.5758 4.00016 16C4.00016 14.4241 4.31055 12.8637 4.91361 11.4078C5.51666 9.95187 6.40058 8.629 7.51488 7.5147C8.62918 6.40039 9.95205 5.51648 11.408 4.91343C12.8639 4.31037 14.4243 3.99998 16.0002 3.99998C19.1828 3.99998 22.235 5.26426 24.4854 7.5147C26.7359 9.76513 28.0002 12.8174 28.0002 16C28.0002 19.1826 26.7359 22.2348 24.4854 24.4853C22.235 26.7357 19.1828 28 16.0002 28Z" fill="#0084FF"/>
</svg>
