<svg width="266" height="266" viewBox="0 0 266 266" fill="none" xmlns="http://www.w3.org/2000/svg">
<rect width="266" height="266" rx="133" fill="#FF4E00"/>
<path d="M83.9062 117.562V123.812H72.6562C73.1562 129.438 77.3438 134.969 85.9688 137.375L82.2188 143.5C75.7812 141.75 71.2812 138.031 68.7188 133.312C66.1875 138.656 61.5 142.844 54.5938 144.75L50.7188 138.562C59.6562 135.969 63.9688 129.938 64.4688 123.812H52.9062V117.562H83.9062ZM96.8438 114.875V126.125H104.531V132.5H96.8438V144.062H88.8438V114.875H96.8438ZM96.8438 146.25V161.25H67.0312V165.125H98.4688V171.188H59.2188V155.625H88.9062V152.25H59.0938V146.25H96.8438ZM155.906 114.938V149.938H148.344V135.938H143.906V149.312H136.469V115.688H143.906V129.5H148.344V114.938H155.906ZM134.656 120.312V126.625H106.719V120.312H116.781V115.188H124.719V120.312H134.656ZM120.781 128.438C128.031 128.438 133.156 132.438 133.219 138.375C133.156 144.188 128.031 148.312 120.781 148.312C113.656 148.312 108.469 144.188 108.469 138.375C108.469 132.438 113.656 128.438 120.781 128.438ZM120.781 134.125C117.656 134.125 115.594 135.562 115.594 138.375C115.594 141.062 117.656 142.562 120.781 142.562C123.906 142.562 125.969 141.062 126.031 138.375C125.969 135.562 123.906 134.125 120.781 134.125ZM128.844 152.875C128.781 157.031 130.625 161.312 135.156 164.125C139.656 161.156 141.656 156.656 141.719 152.875V151.688H149.656V152.875C149.594 158.188 152.781 163.188 160.344 165.125L156.656 171.062C151.156 169.406 147.531 166.094 145.594 161.875C143.719 166.062 140.438 169.75 135.281 171.625C129.969 169.781 126.625 166.312 124.844 162.125C122.75 166.125 119.188 169.375 113.969 171.062L110.219 165.125C117.594 163 120.906 157.875 120.906 152.875V151.688H128.844V152.875ZM178.031 118.875C185.719 118.875 191.438 125.219 192.594 135.438H202.469V114.875H210.344V171.875H202.469V141.812H192.656C191.812 152.75 185.969 159.438 178.031 159.438C169.406 159.438 163.219 151.625 163.281 139.125C163.219 126.75 169.406 118.875 178.031 118.875ZM178.031 126.062C173.781 126.062 170.844 130.688 170.906 139.125C170.844 147.625 173.781 152.188 178.031 152.188C182.344 152.188 185.156 147.625 185.156 139.125C185.156 130.688 182.344 126.062 178.031 126.062Z" fill="white"/>
</svg>
