<svg width="32" height="32" viewBox="0 0 32 32" fill="none" xmlns="http://www.w3.org/2000/svg">
<g clip-path="url(#clip0_31_725)">
<path d="M16 2C23.7322 2 30 8.2678 30 16C30 23.7322 23.7322 30 16 30C8.2678 30 2 23.7322 2 16C2 8.2678 8.2678 2 16 2ZM16 4.8C13.0296 4.8 10.1808 5.98 8.0804 8.0804C5.98 10.1808 4.8 13.0296 4.8 16C4.8 18.9704 5.98 21.8192 8.0804 23.9196C10.1808 26.02 13.0296 27.2 16 27.2C18.9704 27.2 21.8192 26.02 23.9196 23.9196C26.02 21.8192 27.2 18.9704 27.2 16C27.2 13.0296 26.02 10.1808 23.9196 8.0804C21.8192 5.98 18.9704 4.8 16 4.8ZM16 20.2C16.3713 20.2 16.7274 20.3475 16.9899 20.6101C17.2525 20.8726 17.4 21.2287 17.4 21.6C17.4 21.9713 17.2525 22.3274 16.9899 22.59C16.7274 22.8525 16.3713 23 16 23C15.6287 23 15.2726 22.8525 15.0101 22.59C14.7475 22.3274 14.6 21.9713 14.6 21.6C14.6 21.2287 14.7475 20.8726 15.0101 20.6101C15.2726 20.3475 15.6287 20.2 16 20.2ZM16 7.6C16.3713 7.6 16.7274 7.7475 16.9899 8.01005C17.2525 8.2726 17.4 8.6287 17.4 9V17.4C17.4 17.7713 17.2525 18.1274 16.9899 18.3899C16.7274 18.6525 16.3713 18.8 16 18.8C15.6287 18.8 15.2726 18.6525 15.0101 18.3899C14.7475 18.1274 14.6 17.7713 14.6 17.4V9C14.6 8.6287 14.7475 8.2726 15.0101 8.01005C15.2726 7.7475 15.6287 7.6 16 7.6Z" fill="#FF4C4C"/>
</g>
<defs>
<clipPath id="clip0_31_725">
<rect width="32" height="32" fill="white"/>
</clipPath>
</defs>
</svg>
