<svg width="152" height="269" viewBox="0 0 152 269" fill="none" xmlns="http://www.w3.org/2000/svg">
<rect y="7.22217" width="138" height="262" rx="69" transform="rotate(-3 0 7.22217)" fill="#FFC801"/>
<path d="M52.5342 125.95L52.894 132.816L57.6921 132.564L57.9068 136.66L53.1087 136.912L53.4644 143.699L48.4712 143.961L47.541 126.212L52.5342 125.95ZM53.538 145.104L54.045 154.778L35.4377 155.753L35.5624 158.133L55.1839 157.104L55.3884 161.005L30.8907 162.289L30.3735 152.42L48.9028 151.449L48.7842 149.186L30.1769 150.161L29.9766 146.338L53.538 145.104ZM34.2162 127.966C39.6795 127.719 43.9081 130.783 44.1555 135.503C44.4008 140.184 40.5197 143.752 35.0584 144.038C29.5972 144.324 25.3254 141.184 25.0801 136.503C24.8327 131.783 28.7569 128.292 34.2162 127.966ZM34.4288 132.023C31.6981 132.166 29.7864 133.753 29.9562 136.248C30.0501 138.785 32.1213 140.241 34.852 140.098C37.5826 139.955 39.4513 138.292 39.3184 135.757C39.1875 133.26 37.1594 131.88 34.4288 132.023ZM74.7421 127.251C74.8729 129.747 74.6794 132.026 74.1246 134.128L77.8304 133.934L77.3807 125.352L82.0618 125.107L83.0594 144.143L78.3783 144.389L78.0369 137.874L72.4977 138.164C70.5085 141.633 67.2137 144.446 62.4623 146.709L59.8516 143.169C66.2517 140.271 69.2983 136.454 69.7624 131.501L61.0634 131.957L60.8549 127.978L74.7421 127.251ZM89.3997 124.057L90.4566 144.225L85.7366 144.472L84.6796 124.305L89.3997 124.057ZM73.2038 147.906C73.353 150.754 74.7167 153.636 77.7045 155.415C80.5013 153.176 81.6076 150.028 81.4737 147.473L81.3858 145.796L86.3009 145.538L86.3888 147.215C86.5399 150.845 88.7544 154.289 93.5502 155.485L91.3217 159.239C87.8471 158.248 85.5081 156.16 84.1352 153.475C83.108 156.267 81.1858 158.773 78.034 160.209C74.6754 159.192 72.4852 156.96 71.1904 154.27C70.0811 156.988 68.01 159.268 64.8347 160.627L62.148 157.13C66.7452 155.286 68.6246 151.589 68.4837 148.154L68.3958 146.476L73.1159 146.229L73.2038 147.906ZM121.424 122.34L122.115 135.525L127.342 135.251L127.555 139.308L122.328 139.582L123.288 157.916L118.295 158.178L116.431 122.602L121.424 122.34ZM111.648 126.138L111.859 130.156L100.156 130.769L100.972 146.334C106.118 146.005 110.358 145.548 115.034 144.462L115.799 148.608C110.348 149.832 105.519 150.242 99.2363 150.532L96.2326 150.689L94.9916 127.011L111.648 126.138Z" fill="white"/>
</svg>
